<svg width="119" height="119" xmlns="http://www.w3.org/2000/svg"><g fill="none" fill-rule="evenodd"><path d="M63.04 86.206c.588.157 1.21.22 1.85.178 2.426-.158 4.43-1.788 5.107-4.15l.01-.035 10.507-39.215c.557-2.118-.1-4.32-1.71-5.76a5.582 5.582 0 00-5.863-1.011l-21.643 8.984a2.046 2.046 0 00-1.107 2.65 1.995 1.995 0 002.62 1.103l21.63-8.98c.844-.335 1.461.098 1.688.3.23.206.738.78.5 1.683L66.13 81.14c-.305 1.038-1.208 1.177-1.479 1.194-.269.018-1.173-.001-1.602-.974l-6.27-16.882a2.003 2.003 0 00-1.358-1.24l-17.744-4.755c-1.018-.304-1.15-1.233-1.166-1.512-.016-.281.008-1.23.995-1.667l5.24-2.175a2.046 2.046 0 001.107-2.65 1.995 1.995 0 00-2.619-1.103l-5.257 2.182a1.51 1.51 0 00-.03.012c-2.239.972-3.594 3.194-3.45 5.66.142 2.46 1.739 4.486 4.067 5.16l.039.01 16.77 4.494L59.3 82.85c.01.027.02.053.032.08.7 1.663 2.067 2.837 3.708 3.277z" fill="#1D1D4F" fill-rule="nonzero"/><path d="M59.11 113.219c29.883 0 54.109-24.225 54.109-54.109S88.993 5 59.11 5C29.226 5 5 29.226 5 59.11" stroke="#1D1D4F" stroke-width="10" stroke-linecap="round" stroke-linejoin="round"/></g></svg>