<?xml version="1.0" encoding="UTF-8"?>
<svg width="502px" height="119px" viewBox="0 0 502 119" version="1.1" xmlns="http://www.w3.org/2000/svg" xmlns:xlink="http://www.w3.org/1999/xlink">
    <title>logo</title>
    <g id="Page-1" stroke="none" stroke-width="1" fill="none" fill-rule="evenodd">
        <g id="Group-4" transform="translate(5.000000, 5.000000)">
            <g id="noah’s" transform="translate(133.357534, 26.285820)" fill="#1D1D4F" fill-rule="nonzero">
                <polygon id="Path" points="50.8119543 55.7141796 35.5605867 55.7141796 15.2513676 25.0558182 15.2513676 55.7141796 0 55.7141796 0 0.8559441 15.2513676 0.8559441 35.5605867 31.903371 35.5605867 0.8559441 50.8119543 0.8559441"></polygon>
                <path d="M97.3278493,56.2588713 C92.1921847,56.2588713 87.4715233,55.0527683 83.1658651,52.6405622 C78.8602069,50.2283561 75.4493994,46.8823928 72.9334425,42.6026723 C70.4174856,38.3229518 69.1595071,33.4855707 69.1595071,28.0905291 C69.1595071,22.6954875 70.4174856,17.8581065 72.9334425,13.578386 C75.4493994,9.29866545 78.8602069,5.965671 83.1658651,3.5794026 C87.4715233,1.1931342 92.1921847,0 97.3278493,0 C102.515389,0 107.24902,1.1931342 111.52874,3.5794026 C115.808461,5.965671 119.19333,9.29866545 121.68335,13.578386 C124.173369,17.8581065 125.418378,22.6954875 125.418378,28.0905291 C125.418378,33.4855707 124.173369,38.3229518 121.68335,42.6026723 C119.19333,46.8823928 115.795492,50.2283561 111.489834,52.6405622 C107.184175,55.0527683 102.463514,56.2588713 97.3278493,56.2588713 Z M97.3278493,42.0968871 C101.218504,42.0968871 104.292122,40.8259398 106.548702,38.2840452 C108.805282,35.7421506 109.933572,32.3443119 109.933572,28.0905291 C109.933572,23.7329955 108.805282,20.2962503 106.548702,17.7802934 C104.292122,15.2643365 101.218504,14.006358 97.3278493,14.006358 C93.3853189,14.006358 90.2987326,15.2643365 88.0680904,17.7802934 C85.8374482,20.2962503 84.7221271,23.7329955 84.7221271,28.0905291 C84.7221271,32.3961873 85.8374482,35.8069949 88.0680904,38.3229518 C90.2987326,40.8389087 93.3853189,42.0968871 97.3278493,42.0968871 Z" id="Shape"></path>
                <path d="M178.470574,46.7656731 L159.017299,46.7656731 L156.060401,55.7141796 L140.030902,55.7141796 L160.028869,0.8559441 L177.61463,0.8559441 L197.534783,55.7141796 L181.427472,55.7141796 L178.470574,46.7656731 Z M174.657732,35.0937081 L168.743936,17.3523213 L162.907954,35.0937081 L174.657732,35.0937081 Z" id="Shape"></path>
                <polygon id="Path" points="263.114888 0.8559441 263.114888 55.7141796 247.86352 55.7141796 247.86352 33.6930723 229.266189 33.6930723 229.266189 55.7141796 214.014822 55.7141796 214.014822 0.8559441 229.266189 0.8559441 229.266189 21.4764156 247.86352 21.4764156 247.86352 0.8559441"></polygon>
                <polygon id="Path" points="287.064984 0.8559441 302.471978 0.8559441 293.523471 22.7992383 283.329955 22.7992383"></polygon>
                <path d="M342.451572,56.2588713 C336.070898,56.2588713 330.831483,54.7415159 326.733326,51.706805 C322.635169,48.672094 320.430465,44.3275293 320.119213,38.6731107 L336.38215,38.6731107 C336.537777,40.5925005 337.108406,41.9931363 338.094039,42.8750181 C339.079671,43.7568999 340.350619,44.1978408 341.906881,44.1978408 C343.307516,44.1978408 344.461744,43.8476819 345.369563,43.147364 C346.277383,42.4470461 346.731293,41.4743823 346.731293,40.2293727 C346.731293,38.6212353 345.979099,37.3762257 344.474713,36.4943439 C342.970326,35.6124621 340.532182,34.6268295 337.160281,33.5374461 C333.580879,32.3443119 330.688825,31.1900843 328.484121,30.0747632 C326.279416,28.9594421 324.360026,27.325367 322.725951,25.1725379 C321.091876,23.0197088 320.274839,20.2054683 320.274839,16.7298165 C320.274839,13.2022893 321.156721,10.1805473 322.920484,7.66459035 C324.684248,5.14863345 327.122392,3.2422125 330.234916,1.9453275 C333.34744,0.6484425 336.874967,0 340.817497,0 C347.198171,0 352.294929,1.49141775 356.107771,4.47425325 C359.920613,7.45708875 361.956723,11.6460273 362.2161,17.0410689 L345.641909,17.0410689 C345.590034,15.3810561 345.084249,14.1360465 344.124554,13.3060401 C343.164859,12.4760337 341.932818,12.0610305 340.428432,12.0610305 C339.287173,12.0610305 338.353416,12.3982206 337.62716,13.0726008 C336.900904,13.746981 336.537777,14.7066759 336.537777,15.9516855 C336.537777,16.9891935 336.939811,17.8840442 337.74388,18.6362375 C338.547948,19.3884308 339.54655,20.0368733 340.739684,20.581565 C341.932818,21.1262567 343.696582,21.8136057 346.030975,22.6436121 C349.506627,23.8367463 352.372742,25.0169117 354.629322,26.1841082 C356.885902,27.3513047 358.83123,28.9853798 360.465305,31.0863335 C362.09938,33.1872872 362.916418,35.8459014 362.916418,39.0621762 C362.916418,42.3303264 362.09938,45.2612865 360.465305,47.8550565 C358.83123,50.4488265 356.470899,52.4979048 353.384313,54.0022914 C350.297726,55.506678 346.65348,56.2588713 342.451572,56.2588713 Z" id="Path"></path>
            </g>
            <g id="Group-2">
                <path d="M54.11,2.84217094e-14 C24.226,2.84217094e-14 2.84217094e-14,24.226 2.84217094e-14,54.11 C2.84217094e-14,83.994 24.226,108.219 54.11,108.219 C83.993,108.219 108.219,83.994 108.219,54.11 C108.219,24.226 83.993,2.84217094e-14 54.11,2.84217094e-14 Z" id="Fill-1" fill="#FFD607"></path>
                <g id="puntero" transform="translate(49.500000, 52.000000) scale(-1, 1) rotate(-15.000000) translate(-49.500000, -52.000000) translate(28.000000, 26.000000)" fill="#1D1D4F" fill-rule="nonzero">
                    <path d="M5.69186248,52 C5.08356646,52 4.46582704,51.9001637 3.85873657,51.6940927 C1.5569565,50.9128714 0.0423948667,48.820169 0,46.3625514 C0,46.3508717 0,46.3390904 0,46.3274107 L0,5.72837599 C0.0105484858,3.53908739 1.21488418,1.58085426 3.14294646,0.607780678 C5.06518196,-0.36244914 7.32928886,-0.160034398 9.05140451,1.13600901 C9.05682945,1.14007153 9.06225438,1.1442356 9.06767932,1.14839968 L27.6472799,15.4277288 C28.5306402,16.1066764 28.7023294,17.3809854 28.0307425,18.2740275 C27.359256,19.1670695 26.0988626,19.340742 25.2153014,18.6616928 L6.64534513,4.38967618 C5.91739915,3.84672123 5.20914367,4.10570648 4.93779643,4.24261319 C4.66293303,4.38134803 4.02299156,4.80476351 4.01857124,5.73832914 L4.01857124,46.306895 C4.04449038,47.388133 4.88093507,47.7556889 5.13771536,47.8428298 C5.39318964,47.9294629 6.27142642,48.1448777 6.93758842,47.3158202 L17.3638122,32.6320678 C17.7412471,32.1004879 18.3488399,31.7853384 18.9961151,31.7853384 L37.3665543,31.7853384 C38.4281338,31.7553774 38.7960248,30.8921948 38.8838284,30.6272173 C38.9724356,30.3594977 39.1950589,29.4361899 38.3540934,28.7593751 L33.8553149,25.3018714 C32.9719546,24.6229238 32.8002654,23.3486148 33.4718524,22.4555727 C34.1433388,21.5626322 35.4038327,21.3888582 36.2872935,22.0679074 L40.8005385,25.5365831 C40.8088768,25.5429815 40.8173156,25.5494816 40.8255534,25.5560831 C42.7376423,27.0742445 43.4712141,29.5709638 42.6945442,31.9167607 C41.919984,34.2561592 39.8533849,35.7991019 37.4296442,35.8474458 C37.4163833,35.8476489 37.4032228,35.8478521 37.3899618,35.8478521 L20.0271542,35.8478521 L10.1729597,49.7257033 C10.1562831,49.7490628 10.139305,49.7721175 10.1217242,49.7946645 C9.01604197,51.2198958 7.39127377,52 5.69186248,52 L5.69186248,52 Z" id="Path"></path>
                </g>
                <path d="M54.11,108.219 C83.993,108.219 108.219,83.994 108.219,54.11 C108.219,24.226 83.993,0 54.11,0 C24.226,0 0,24.226 0,54.11" id="Path" stroke="#1D1D4F" stroke-width="10" stroke-linecap="round" stroke-linejoin="round"></path>
            </g>
        </g>
    </g>
</svg>