<svg viewBox="0 0 1440 386" width="100%" height="100%" xmlns="http://www.w3.org/2000/svg">
  <path d="m.23778071 330.689997c0 2.127308 7.1334214 6.275558 8.91677675 7.339212 40.77939234 24.038578 83.69881114 4.892808 118.77146654-17.124828 69.431968-43.503444 157.886393-28.399559 235.402906-15.635712 26.274769 4.360981 53.26288 9.360154 79.89432 4.892808 37.450462-6.275558 65.389696-33.292367 92.734478-54.67181 31.743725-24.889502 66.935271-47.970791 103.43461-66.797465 15.336856-7.871039 31.149274-14.891155 47.675033-20.528521 90.118891-30.845963 181.664465 2.020943 270.594452 20.103059 4.755614.957289 9.511229 1.914577 14.147952 2.7655 101.413475 19.677597 157.767505-47.864425 220.541615-105.833563 34.71598-32.015982 79.18097-55.097272 132.20607-69.66933 26.27477-7.232847 53.50066-11.806558 81.55879-13.508405 11.29458-.744557 22.58917-1.38275 33.88375-2.020942v386c-480.07926 0-960.03963 0-1440 0 .23778071 0 .23778071-55.310003.23778071-55.310003z" transform="matrix(-1 0 0 -1 1440 386)"/>
</svg>
