<svg   viewBox="0 0 1650 330" preserveAspectRatio="none" xmlns="http://www.w3.org/2000/svg"><g><path d="m1650 330-55-36.681102c-55-36.637796-165-110-275-122.255906-110-11.779527-220 36.334646-330 24.511811-110-12.255905-220-85.574803-330-79.511811-110 6.53937-220 91.334646-330 122.255906-110 30.964567-220 5.759842-275-6.062992l-55-12.255906v-220h1650z"/><path d="m1650 293.396351-55-18.323735c-55-18.323735-165-55.014523-275-55.014523s-220 36.690788-330 30.582876c-110-6.497778-220-54.667975-330-48.94993-110 5.761364-220 67.663532-330 91.705312-110 24.085098-220 12.605689-275 6.064593l-55-6.021275v-293.439669h1650z" opacity=".66"/></g></svg>