<svg viewBox="0 0 2020 202" preserveAspectRatio="none" xmlns="http://www.w3.org/2000/svg"><g><path d="m955.46 135.948284c-411.878 178.368996-531.462-68.681154-647.006 0-175.134 104.637757-308.454-15.352258-308.454-15.352258v-120.596026h2020v120.596026s-125.442 52.722885-191.698 59.186994c-66.256 6.666112-126.856-24.846417-153.116-44.64275-47.066-34.946587-169.68-117.5659748-271.488-125.64611051-101.808-8.08013574-409.05 109.68784251-448.238 126.45412451z" opacity=".33" transform="matrix(-1 0 0 1 2020 0)"/><path d="m1547.522 58.3517826c-404-116.0978373-537.32 132.2505794-798.102 39.37231-260.58-94.08972552-260.58-86.8209914-376.124-56.1307805-114.736 30.6902109-106.05 49.0639556-191.698 64.4090609-123.826 22.61384-181.598-106.002373-181.598-106.002373h2020s-19.998 82.5808964-168.872 97.1183647-175.336-2.2210021-303.606-38.7665821z"/></g></svg>