<svg viewBox="0 0 3312 211" preserveAspectRatio="none" xmlns="http://www.w3.org/2000/svg"><g><path d="m0 54.0353897c288.204082 51.7000003 870.244898-39.48 1515.18367 0 645.87755 37.6 1290.81633 53.5800003 1796.81633-10.34v-36.66000005h-3312z"/><path d="m0 100.623435c297.591837 74.898749 684.367347-35.576905 942.530612-51.492889 258.163268-15.9159841 868.367348 137.62645 1189.428568 121.710466 322-15.915984 436.53062-78.6436857 661.83674-81.4523888 225.30612-1.8724687 518.20408 82.3886228 518.20408 82.3886228v-164.777246h-3312z" opacity=".5"/><path d="m0 180.658969c240.326531-78.095397 720.979592-28.227252 1106.81633-39.518153 384.89796-11.2909 644-57.3954117 899.34694-26.345435 256.28571 31.049977 526.65306 110.086282 808.28571 94.09084 281.63265-17.87726 444.04082-77.154489 497.55102-79.036305v-113.849916h-3312z" opacity=".5"/></g></svg>