<?xml version="1.0" encoding="UTF-8"?>
<svg preserveAspectRatio="none" viewBox="0 0 711 258" version="1.1" xmlns="http://www.w3.org/2000/svg" xmlns:xlink="http://www.w3.org/1999/xlink">
    <g id="Group-2" transform="translate(0.000000, 0.000279)" fill-rule="nonzero">
        <path d="M710.351,0.138277128 C710.351,0.138277128 592.563,-1.26727861 532.824,83.7497214 C473.085,168.766721 431.184,151.301721 319.223,112.435721 C207.262,73.5707214 154.246,174.638721 136.893,206.692721 C119.539,238.747721 87.803,283.636721 0,239.330721 L0,0.138277128 L710.351,0.138277128 Z" id="Path" opacity="0.501822335"></path>
        <path d="M565.13,0.139721392 C565.13,0.139721392 495.051,-6.42227861 447.525,70.3937214 C399.999,147.209721 371.638,187.402721 282.566,152.286721 C193.494,117.170721 162.239,148.274721 132.412,186.766721 C112.99,211.831721 69.853,256.288721 0,216.256721 L0,0.139721392 L565.13,0.139721392 Z" id="Path"></path>
    </g>
</svg>