<svg width="502" height="119" xmlns="http://www.w3.org/2000/svg"><g fill="none" fill-rule="evenodd"><path d="M189.17 87h-15.252l-20.31-30.658V87h-15.25V32.142h15.25l20.31 31.047V32.142h15.251zm46.515.545c-5.135 0-9.856-1.206-14.162-3.619-4.305-2.412-7.716-5.758-10.232-10.038-2.516-4.28-3.774-9.117-3.774-14.512s1.258-10.232 3.774-14.512c2.516-4.28 5.927-7.613 10.232-9.999 4.306-2.386 9.027-3.58 14.162-3.58 5.188 0 9.922 1.194 14.201 3.58 4.28 2.386 7.665 5.72 10.155 10 2.49 4.279 3.735 9.116 3.735 14.511s-1.245 10.233-3.735 14.512c-2.49 4.28-5.888 7.626-10.194 10.038-4.305 2.413-9.026 3.619-14.162 3.619zm0-14.162c3.891 0 6.965-1.271 9.221-3.813 2.257-2.542 3.385-5.94 3.385-10.194 0-4.357-1.128-7.794-3.385-10.31-2.256-2.516-5.33-3.774-9.22-3.774-3.943 0-7.03 1.258-9.26 3.774-2.231 2.516-3.346 5.953-3.346 10.31 0 4.306 1.115 7.717 3.346 10.233 2.23 2.516 5.317 3.774 9.26 3.774zm81.143 4.668h-19.453L294.418 87h-16.03l19.998-54.858h17.586L335.892 87h-16.107l-2.957-8.949zm-3.813-11.671l-5.914-17.742-5.836 17.742h11.75zm88.457-34.238V87h-15.25V64.979h-18.598V87h-15.252V32.142h15.252v20.62h18.597v-20.62zm23.951 0h15.407l-8.949 21.943h-10.194zm55.387 55.403c-6.382 0-11.621-1.518-15.72-4.552-4.097-3.035-6.302-7.38-6.613-13.034h16.263c.155 1.92.726 3.32 1.712 4.202.985.882 2.256 1.323 3.812 1.323 1.401 0 2.555-.35 3.463-1.05.908-.701 1.362-1.674 1.362-2.919 0-1.608-.752-2.853-2.257-3.735-1.504-.882-3.942-1.867-7.314-2.957-3.58-1.193-6.472-2.347-8.676-3.462-2.205-1.116-4.124-2.75-5.759-4.903-1.634-2.152-2.45-4.967-2.45-8.442 0-3.528.881-6.55 2.645-9.066 1.764-2.516 4.202-4.422 7.314-5.719 3.113-1.297 6.64-1.945 10.583-1.945 6.38 0 11.477 1.491 15.29 4.474 3.813 2.983 5.85 7.172 6.109 12.567h-16.575c-.051-1.66-.557-2.905-1.517-3.735-.96-.83-2.192-1.245-3.696-1.245-1.141 0-2.075.337-2.801 1.011-.727.675-1.09 1.634-1.09 2.88 0 1.037.402 1.932 1.206 2.684.804.752 1.803 1.4 2.996 1.945 1.193.545 2.957 1.232 5.292 2.062 3.475 1.194 6.341 2.374 8.598 3.54 2.256 1.168 4.202 2.802 5.836 4.903 1.634 2.101 2.451 4.76 2.451 7.976 0 3.268-.817 6.2-2.451 8.793-1.634 2.594-3.995 4.643-7.081 6.147-3.087 1.504-6.731 2.257-10.933 2.257z" fill="#1D1D4F" fill-rule="nonzero"/><path d="M59.11 5C29.226 5 5 29.226 5 59.11s24.226 54.109 54.11 54.109c29.883 0 54.109-24.225 54.109-54.109S88.993 5 59.11 5z" fill="#FFD607"/><path d="M63.04 86.206c.588.157 1.21.22 1.85.178 2.426-.158 4.43-1.788 5.107-4.15l.01-.035 10.507-39.215c.557-2.118-.1-4.32-1.71-5.76a5.582 5.582 0 00-5.863-1.011l-21.643 8.984a2.046 2.046 0 00-1.107 2.65 1.995 1.995 0 002.62 1.103l21.63-8.98c.844-.335 1.461.098 1.688.3.23.206.738.78.5 1.683L66.13 81.14c-.305 1.038-1.208 1.177-1.479 1.194-.269.018-1.173-.001-1.602-.974l-6.27-16.882a2.003 2.003 0 00-1.358-1.24l-17.744-4.755c-1.018-.304-1.15-1.233-1.166-1.512-.016-.281.008-1.23.995-1.667l5.24-2.175a2.046 2.046 0 001.107-2.65 1.995 1.995 0 00-2.619-1.103l-5.257 2.182a1.51 1.51 0 00-.03.012c-2.239.972-3.594 3.194-3.45 5.66.142 2.46 1.739 4.486 4.067 5.16l.039.01 16.77 4.494L59.3 82.85c.01.027.02.053.032.08.7 1.663 2.067 2.837 3.708 3.277z" fill="#1D1D4F" fill-rule="nonzero"/><path d="M59.11 113.219c29.883 0 54.109-24.225 54.109-54.109S88.993 5 59.11 5C29.226 5 5 29.226 5 59.11" stroke="#1D1D4F" stroke-width="10" stroke-linecap="round" stroke-linejoin="round"/></g></svg>